<?xml version="1.0" encoding="UTF-8"?><svg xmlns="http://www.w3.org/2000/svg" xmlns:xlink="http://www.w3.org/1999/xlink" viewBox="0 0 48 48" version="1.1"><g id="surface1"><path d="M44.082 29.79c-.184-.83-.934-1.798-2.45-1.798-.312 0-.652.04-1.034.121-.711.145-1.313.215-1.844.242 4.133-7.043 6.816-16.82 4.16-20.214C39.41 3.668 34.7 3 32.204 3h-.235c-.93.016-1.895.129-2.864.34l-3.585.773A13.337 13.337 0 0 0 24.02 4h-.2c-1.593 0-3.047.336-4.34.973l-1.253-.493c-1.72-.68-4.305-1.488-6.868-1.488-.144 0-.285.004-.43.012-2.523.09-4.687 1.047-6.265 2.766-1.969 2.144-2.863 5.285-2.66 9.332C2.012 15.309 4.46 36 11.398 36h.09c.903-.023 1.762-.387 2.563-1.078.613.46 1.406.73 2.144.84.489.117 1.367.277 2.418.277 1.285 0 2.446-.262 3.442-.738 0 .883-.004 1.996-.016 3.418v.078l.004.074c.098 1.418.344 2.695.71 3.7 1.052 2.859 2.868 4.433 5.11 4.433.094 0 .192 0 .285-.008 1.848-.113 3.72-1.152 5.004-2.773 1.395-1.754 1.715-3.606 1.84-5.024l.008-.09v-4.164l.102.008.437.04.043.003h.04c.124.008.253.012.382.012 1.508 0 3.363-.395 4.617-.977 1.2-.554 3.938-2.082 3.461-4.242z" fill="#FFF"/><path d="M33 34c0-.203.012-.375.02-.566L33 33l.031-.023c.149-2.672.887-3.704 1.676-4.29-.11-.152-.238-.316-.355-.472-.332-.438-.75-.98-1.192-1.676l-.082-.156c-.066-.164-.23-.45-.437-.82-1.18-2.141-3.645-6.594-1.957-9.407.738-1.23 2.12-1.941 4.12-2.117-.82-2.32-3.878-7.926-10.82-8.039h-.004c-6.043-.098-8.027 5.39-8.671 8.672.886-.375 1.906-.606 2.836-.606h.043c2.289.016 3.863 1.239 4.32 3.356.336 1.55.496 2.906.492 4.152-.008 2.719-.559 4.149-1.04 5.41l-.155.407c-.125.336-.254.644-.38.937-.124.3-.238.563-.316.805.485.11.864.262 1.125.379l.149.066c.047.02.094.043.137.067.847.515 1.378 1.308 1.492 2.234.058.5.05 3.894.027 6.855.09 1.286.305 2.364.594 3.145.41 1.113 1.43 3.242 3.394 3.121 1.371-.086 2.688-.922 3.563-2.02.937-1.18 1.281-2.488 1.414-3.957V34z" fill="#0277BD"/><path d="M15.113 28.918c-1.613-1.684-2.398-3.95-2.101-6.059.285-2.035.12-4.023.035-5.097a12.922 12.922 0 0 1-.047-.77c0-.008.004-.015.004-.023 0-.004-.004-.004-.004-.008.121-3.023 1.285-7.79 4.492-10.621C15.934 5.723 13.387 4.914 11 5c-3.742.137-7.363 2.723-7 10 .137 2.73 3.223 19.102 7.441 19 .602-.016 1.227-.402 1.871-1.176a93.981 93.981 0 0 1 2.708-3.105 7.518 7.518 0 0 1-.907-.801z" fill="#0277BD"/><path d="M37.023 14.73c.016.157 0 .286-.023.41.031.919-.066 1.813-.168 2.676a24.352 24.352 0 0 0-.172 1.954c-.02.644.07 1.28.168 1.953.223 1.578.457 3.359-.766 5.437.223.297.422.57.583.836 4.609-7.473 6.464-16.36 4.695-18.625C38.656 5.945 34.94 4.953 32 5c-.922.016-1.758.14-2.473.293 5.075 2.46 7.336 7.734 7.496 9.437z" fill="#0277BD"/><path d="M41 30.07c-2.664.551-3.945.258-4.57-.125-.098.07-.2.133-.293.192-.371.222-.961.582-1.106 2.781.086.016.157.023.246.043l.438.039c1.32.059 3.047-.309 4.062-.781 2.184-1.016 3.375-2.59 1.223-2.149z" fill="#0277BD"/><path d="M22.023 32.117c-.039-.297-.199-.539-.492-.73l-.11-.047c-.358-.16-.769-.34-1.421-.34h-.004c-.129.012-.254.02-.379.02-.055 0-.105-.008-.156-.008-.473.363-1.148.644-2.816.988-2.98.758-1.22 1.656-.079 1.793 1.106.277 3.735.613 5.48-.809a13.61 13.61 0 0 0-.023-.867z" fill="#0277BD"/><path d="M20.68 18.5c-.29.305-.75.566-1.262.484-.828-.132-1.461-1.132-1.414-1.507.043-.375.75-.57 1.574-.434.29.047.55.129.77.227-.32-.688-.899-1.086-1.782-1.18-1.566-.176-3.226.64-3.558 1.094.004.113.02.253.031.418.094 1.148.266 3.285-.05 5.539-.208 1.484.394 3.168 1.566 4.394.758.79 1.64 1.29 2.515 1.438.11-.48.309-.946.512-1.426.113-.266.234-.547.348-.852l.16-.425c.441-1.157.898-2.352.91-4.704.004-.906-.11-1.937-.32-3.066z" fill="#0277BD"/><path d="M34.848 22.008c-.106-.73-.211-1.485-.188-2.305.024-.742.106-1.441.188-2.117.058-.535.109-1.047.136-1.55-1.289.105-2.144.48-2.55 1.109a2.57 2.57 0 0 1 .566-.13c.895-.117 1.543.141 1.617.637.059.364-.25.703-.387.836-.277.27-.625.442-.98.489a1.682 1.682 0 0 1-1.14-.29c.113 1.973 1.566 4.614 2.28 5.907.157.277.274.5.372.687.39-1.117.246-2.136.086-3.273z" fill="#0277BD"/></g><metadata><rdf:RDF xmlns:rdf="http://www.w3.org/1999/02/22-rdf-syntax-ns#" xmlns:rdfs="http://www.w3.org/2000/01/rdf-schema#" xmlns:dc="http://purl.org/dc/elements/1.1/"><rdf:Description about="https://iconscout.com/legal#licenses" dc:title="postgresql" dc:description="postgresql" dc:publisher="Iconscout" dc:date="2017-12-15" dc:format="image/svg+xml" dc:language="en"><dc:creator><rdf:Bag><rdf:li>Icons8</rdf:li></rdf:Bag></dc:creator></rdf:Description></rdf:RDF></metadata></svg>